<?xml version="1.0" encoding="utf-8"?>
<!-- Generator: Adobe Illustrator 28.0.0, SVG Export Plug-In . SVG Version: 6.00 Build 0)  -->
<svg version="1.1" id="Layer_1" xmlns:sketch="http://www.bohemiancoding.com/sketch/ns"
	 xmlns="http://www.w3.org/2000/svg" xmlns:xlink="http://www.w3.org/1999/xlink" x="0px" y="0px" viewBox="0 0 512 512"
	 style="enable-background:new 0 0 512 512;" xml:space="preserve">
<style type="text/css">
	.st0{fill-rule:evenodd;clip-rule:evenodd;fill:#FF0000;stroke:#373435;stroke-width:0.5669;stroke-miterlimit:10;}
	.st1{fill-rule:evenodd;clip-rule:evenodd;fill:#FFFF00;stroke:#373435;stroke-width:0.5669;stroke-miterlimit:10;}
	.st2{fill-rule:evenodd;clip-rule:evenodd;fill:#2AA125;stroke:#373435;stroke-width:0.5669;stroke-miterlimit:10;}
</style>
<g id="SVGRepo_bgCarrier">
</g>
<g id="SVGRepo_tracerCarrier">
</g>
<g id="Layer_x0020_1">
	<g id="_1818452274576">
		<g id="SVGRepo_bgCarrier_00000044893734704698182460000014884511992085247122_">
		</g>
		<g id="SVGRepo_tracerCarrier_00000067939915892718314930000001743019108017086612_">
		</g>
		<g id="SVGRepo_iconCarrier_00000176000695080737548300000008661679408724292005_">
			<path d="M407.1,227.2c-54.7-27.6-119.3-43.8-187.6-43.8c-38.9,0-76.5,5.2-112.3,15l3-0.7c-2.1,0.7-4.5,1.1-7,1.1
				c-13,0-23.5-10.5-23.5-23.5c0-10.5,6.8-19.3,16.3-22.4l0.2-0.1c90.9-26.9,240.6-21.8,335.4,34.6c7.3,4.4,12.1,12.3,12.1,21.3
				c0,4.4-1.2,8.6-3.2,12.2l0.1-0.1c-5,5.9-12.3,9.6-20.6,9.6c-4.7,0-9-1.2-12.8-3.3L407.1,227.2L407.1,227.2z M404.5,298.9
				c-3.4,5.7-9.6,9.4-16.6,9.4c-3.8,0-7.4-1.1-10.4-3l0.1,0.1c-46.8-26.8-102.8-42.5-162.5-42.5c-32.9,0-64.6,4.8-94.6,13.7l2.3-0.6
				c-1.7,0.5-3.7,0.9-5.8,0.9c-10.7,0-19.4-8.7-19.4-19.4c0-8.7,5.7-16,13.5-18.5l0.1,0c30.8-9.1,66.2-14.4,102.8-14.4
				c68.1,0,132,18.2,187,49.9l-1.8-1c5.1,3.3,8.4,8.9,8.4,15.3C407.7,292.5,406.5,296,404.5,298.9L404.5,298.9L404.5,298.9
				L404.5,298.9z M373.8,369.3c-2.7,4.6-7.6,7.7-13.3,7.7c-3.2,0-6.1-1-8.6-2.6l0.1,0c-40.9-23-89.7-36.5-141.7-36.5
				c-29.8,0-58.6,4.5-85.7,12.7l2.1-0.5c-1.1,0.3-2.5,0.5-3.8,0.5c-8.7,0-15.8-7.1-15.8-15.8c0-7.4,5.1-13.6,11.9-15.3l0.1,0
				c27-8,58-12.6,90.1-12.6c58.1,0,112.6,15.1,159.9,41.7l-1.7-0.9c5.2,2.6,8.6,7.8,8.6,13.8C376,364.3,375.2,367.1,373.8,369.3
				L373.8,369.3L373.8,369.3L373.8,369.3z M256-0.6L256-0.6C114.6-0.6,0,114,0,255.4s114.6,256,256,256s256-114.6,256-256l0,0
				C511.6,114.2,397.2-0.2,256-0.6L256-0.6L256-0.6L256-0.6z"/>
		</g>
	</g>
	<path class="st0" d="M406.9,227.2c0,0,0.1,0,0.1,0.1L406.9,227.2z M107.1,198.5c35.8-9.8,73.4-15,112.3-15
		c68.3,0,132.8,16.1,187.5,43.7c3.8,2.1,8.2,3.3,12.8,3.3c8.2,0,15.6-3.7,20.5-9.6c0,0,0,0,0,0c2-3.6,3.1-7.7,3.1-12
		c0-9-4.8-16.8-12.1-21.3c-94.7-56.4-244.5-61.5-335.4-34.6l-0.2,0.1c-9.4,3.1-16.3,11.9-16.3,22.4c0,13,10.5,23.5,23.5,23.5
		c2.5,0,4.9-0.4,7-1.1L107.1,198.5L107.1,198.5z"/>
	<path class="st1" d="M401.2,274.3c-55-31.8-118.9-49.9-187-49.9c-36.6,0-72,5.3-102.8,14.4l-0.1,0c-7.9,2.5-13.5,9.9-13.5,18.5
		c0,10.7,8.7,19.4,19.4,19.4c1.3,0,2.5-0.1,3.6-0.3c29.9-8.8,61.5-13.6,94.3-13.6c59.7,0,115.7,15.7,162.4,42.5l0.1,0.1
		c3,1.9,6.5,3,10.3,3c7,0,13.1-3.7,16.6-9.4l0,0c2-2.9,3.2-6.5,3.2-10.3c0-6.4-3.3-12-8.4-15.3L401.2,274.3L401.2,274.3z"/>
	<path class="st2" d="M352,374.4C352,374.4,352,374.4,352,374.4L352,374.4z M373.8,369.3C373.8,369.3,373.7,369.4,373.8,369.3
		L373.8,369.3L373.8,369.3z M367.8,347.8l-0.4-0.2C367.5,347.6,367.6,347.7,367.8,347.8z M369,348.4
		c-47.3-26.5-101.8-41.7-159.9-41.7c-32.1,0-63.1,4.6-90.1,12.6l-0.1,0c-6.8,1.8-11.9,8-11.9,15.3c0,8.7,7.1,15.8,15.8,15.8
		c1,0,1.9-0.1,2.8-0.3c26.8-8.1,55.2-12.4,84.6-12.4c52,0,100.8,13.5,141.7,36.5l0,0c2.4,1.6,5.4,2.6,8.5,2.6
		c5.7,0,10.6-3.1,13.3-7.7h0c1.4-2.3,2.2-5,2.2-7.9c0-5.9-3.3-11-8.2-13.6L369,348.4L369,348.4z"/>
</g>
</svg>
